<?xml version="1.0" encoding="iso-8859-1"?>
<!-- Generator: Adobe Illustrator 19.0.0, SVG Export Plug-In . SVG Version: 6.00 Build 0)  -->
<svg version="1.1" id="Layer_1" xmlns="http://www.w3.org/2000/svg" xmlns:xlink="http://www.w3.org/1999/xlink" x="0px" y="0px"
	 viewBox="0 0 508 508" style="enable-background:new 0 0 508 508;" xml:space="preserve">
<circle style="fill:#FD8469;" cx="254" cy="254" r="254"/>
<g>
	<path style="fill:#E6E9EE;" d="M153.2,487.2c2,0.8,4,1.6,6,2.4C156.8,488.8,154.8,488,153.2,487.2L153.2,487.2z"/>
	<path style="fill:#E6E9EE;" d="M153.2,154.8v332c-26.4-11.6-50.4-27.2-71.2-46.4V170.8C105.2,164,128.8,158.8,153.2,154.8z"/>
	<path style="fill:#E6E9EE;" d="M165.2,492c9.6,3.6,19.6,6.8,30,9.2C185.2,498.8,175.2,495.6,165.2,492z"/>
	<path style="fill:#E6E9EE;" d="M426.4,440.8c-20.8,19.2-44.8,34.8-71.2,46.4v-332c24,4,48,9.2,71.2,15.6L426.4,440.8L426.4,440.8z"
		/>
	<path style="fill:#E6E9EE;" d="M349.2,489.6c2-0.8,4-1.6,6-2.4l0,0C352.8,488,351.2,488.8,349.2,489.6z"/>
</g>
<g>
	<rect x="101.2" y="200" style="fill:#54C0EB;" width="52" height="49.2"/>
	<rect x="354.8" y="200" style="fill:#54C0EB;" width="52" height="49.2"/>
	<rect x="101.2" y="258.8" style="fill:#54C0EB;" width="52" height="56.8"/>
	<rect x="354.8" y="258.8" style="fill:#54C0EB;" width="52" height="56.8"/>
	<rect x="101.2" y="325.2" style="fill:#54C0EB;" width="52" height="56.8"/>
	<rect x="354.8" y="325.2" style="fill:#54C0EB;" width="52" height="56.8"/>
	<rect x="101.2" y="391.2" style="fill:#54C0EB;" width="52" height="56.8"/>
	<rect x="354.8" y="391.2" style="fill:#54C0EB;" width="52" height="56.8"/>
	<path style="fill:#54C0EB;" d="M153.2,457.6v29.6c-18.4-8-35.2-18-51.2-29.6H153.2z"/>
	<path style="fill:#54C0EB;" d="M153.2,487.2c2,0.8,4,1.6,6,2.4C156.8,488.8,154.8,488,153.2,487.2L153.2,487.2z"/>
	<path style="fill:#54C0EB;" d="M158.8,489.6c15.6,6.4,32,11.2,49.2,14.4C190.8,500.8,174.4,496,158.8,489.6z"/>
	<path style="fill:#54C0EB;" d="M337.2,494c4-1.2,8-2.8,12-4.4C345.2,491.2,341.2,492.8,337.2,494z"/>
	<path style="fill:#54C0EB;" d="M406,457.6c-15.6,11.6-32.8,21.6-51.2,29.6v-29.6H406z"/>
	<path style="fill:#54C0EB;" d="M354.8,487.2L354.8,487.2c-2,0.8-4,1.6-6,2.4C351.2,488.8,353.2,488,354.8,487.2z"/>
</g>
<path style="fill:#FFFFFF;" d="M153.2,85.2v402C184,500.8,218.4,508,254,508c36,0,70-7.6,100.8-20.8v-402
	C289.6,53.6,218.4,53.6,153.2,85.2z"/>
<g>
	<rect x="166.8" y="131.6" style="fill:#84DBFF;" width="174" height="43.2"/>
	<rect x="166.8" y="184" style="fill:#84DBFF;" width="174" height="48"/>
	<rect x="166.8" y="241.2" style="fill:#84DBFF;" width="174" height="48"/>
	<rect x="166.8" y="298" style="fill:#84DBFF;" width="174" height="48"/>
	<rect x="166.8" y="354.8" style="fill:#84DBFF;" width="174" height="48"/>
	<rect x="166.8" y="411.6" style="fill:#84DBFF;" width="174" height="47.6"/>
	<path style="fill:#84DBFF;" d="M166.8,492.8c27.2,10,56.4,15.2,87.2,15.2c30.4,0,60-5.6,87.2-15.2v-24H166.8V492.8z"/>
</g>
<g>
	<polygon style="fill:#FFD05B;" points="254,76.8 259.6,88.4 272.4,90 263.2,99.2 265.2,111.6 254,105.6 242.8,111.6 244.8,99.2 
		235.6,90 248.4,88.4 	"/>
	<polygon style="fill:#FFD05B;" points="290.4,84 294.8,92.8 304.4,94 297.2,100.8 298.8,110.4 290.4,106 281.6,110.4 283.2,100.8 
		276.4,94 286,92.8 	"/>
	<polygon style="fill:#FFD05B;" points="320.4,91.6 324,99.2 332.4,100.4 326.4,106.4 328,114.4 320.4,110.4 313.2,114.4 
		314.4,106.4 308.4,100.4 316.8,99.2 	"/>
	<polygon style="fill:#FFD05B;" points="217.6,84 213.2,92.8 203.6,94 210.8,100.8 209.2,110.4 217.6,106 226.4,110.4 224.8,100.8 
		231.6,94 222,92.8 	"/>
	<polygon style="fill:#FFD05B;" points="187.6,91.6 184,99.2 175.6,100.4 181.6,106.4 180,114.4 187.6,110.4 194.8,114.4 
		193.6,106.4 199.6,100.4 191.2,99.2 	"/>
</g>
<g>
</g>
<g>
</g>
<g>
</g>
<g>
</g>
<g>
</g>
<g>
</g>
<g>
</g>
<g>
</g>
<g>
</g>
<g>
</g>
<g>
</g>
<g>
</g>
<g>
</g>
<g>
</g>
<g>
</g>
</svg>
